<svg xmlns="http://www.w3.org/2000/svg" width="70" height="70" viewBox="0 0 70 70">
  <g id="Group_139" data-name="Group 139" transform="translate(-30 -299)">
    <rect id="Rectangle_89" data-name="Rectangle 89" width="70" height="70" rx="10" transform="translate(30 299)" fill="#fff"/>
    <text id="eClaim" transform="translate(38 355)" fill="#3b3858" font-size="12" font-family="Nunito-Bold, Nunito" font-weight="700" letter-spacing="0.03em"><tspan x="0" y="0">eClaim</tspan></text>
    <g id="Group_156" data-name="Group 156" transform="translate(-27.8 -2)">
      <g id="Path_902" data-name="Path 902" transform="translate(66 312)" fill="#fff">
        <path d="M 13.5 15.75 L 2 15.75 C 1.03505003452301 15.75 0.25 14.96494960784912 0.25 14 L 0.25 2 C 0.25 1.03505003452301 1.03505003452301 0.25 2 0.25 L 13.5 0.25 C 14.46494960784912 0.25 15.25 1.03505003452301 15.25 2 L 15.25 14 C 15.25 14.96494960784912 14.46494960784912 15.75 13.5 15.75 Z" stroke="none"/>
        <path d="M 2 0.5 C 1.172900199890137 0.5 0.5 1.172900199890137 0.5 2 L 0.5 14 C 0.5 14.82709980010986 1.172900199890137 15.5 2 15.5 L 13.5 15.5 C 14.32709980010986 15.5 15 14.82709980010986 15 14 L 15 2 C 15 1.172900199890137 14.32709980010986 0.5 13.5 0.5 L 2 0.5 M 2 0 L 13.5 0 C 14.60457038879395 0 15.5 0.8954296112060547 15.5 2 L 15.5 14 C 15.5 15.10457038879395 14.60457038879395 16 13.5 16 L 2 16 C 0.8954296112060547 16 0 15.10457038879395 0 14 L 0 2 C 0 0.8954296112060547 0.8954296112060547 0 2 0 Z" stroke="none" fill="#335017"/>
      </g>
      <rect id="Rectangle_116" data-name="Rectangle 116" width="14" height="14" rx="1" transform="translate(65.8 311.8)" fill="#fff"/>
      <path id="Icon_ionic-ios-paper" data-name="Icon ionic-ios-paper" d="M6.022,4.513V15.959a.494.494,0,0,1-.488.5h0a.494.494,0,0,1-.488-.5V5.65H4.489A1.125,1.125,0,0,0,3.375,6.788V17.026a1.125,1.125,0,0,0,1.114,1.138h12.3a1.088,1.088,0,0,0,1.076-1.1V4.513a1.125,1.125,0,0,0-1.114-1.138l-9.681.071A1.009,1.009,0,0,0,6.022,4.513ZM8.32,5.65h2.925a.494.494,0,0,1,.488.5h0a.494.494,0,0,1-.488.5H8.32a.494.494,0,0,1-.488-.5h0A.494.494,0,0,1,8.32,5.65Zm0,5.688h5.154a.494.494,0,0,1,.488.5h0a.494.494,0,0,1-.488.5H8.32a.494.494,0,0,1-.488-.5h0A.494.494,0,0,1,8.32,11.338Zm6.825,3.839H8.32a.494.494,0,0,1-.488-.5h0a.494.494,0,0,1,.488-.5h6.825a.494.494,0,0,1,.488.5h0A.494.494,0,0,1,15.145,15.177Zm0-5.688H8.32a.494.494,0,0,1-.488-.5h0a.494.494,0,0,1,.488-.5h6.825a.494.494,0,0,1,.488.5h0A.494.494,0,0,1,15.145,9.489Z" transform="translate(62.625 308.625)" fill="#335017"/>
    </g>
  </g>
</svg>
