<svg xmlns="http://www.w3.org/2000/svg" width="70" height="70" viewBox="0 0 70 70">
  <g id="Group_136" data-name="Group 136" transform="translate(-30 -299)">
    <path id="Path_904" data-name="Path 904" d="M10,0H60A10,10,0,0,1,70,10V60A10,10,0,0,1,60,70H10A10,10,0,0,1,0,60V10A10,10,0,0,1,10,0Z" transform="translate(30 299)" fill="#fff"/>
    <text id="eHadir" transform="translate(38 355)" fill="#3b3858" font-size="12" font-family="Nunito-Bold, Nunito" font-weight="700" letter-spacing="0.03em"><tspan x="0" y="0">eHadir</tspan></text>
    <g id="Group_155" data-name="Group 155" transform="translate(-35 -60)">
      <g id="Path_900" data-name="Path 900" transform="translate(74 372)" fill="#fff">
        <path d="M 14 15.75 L 2 15.75 C 1.03505003452301 15.75 0.25 14.96494960784912 0.25 14 L 0.25 2 C 0.25 1.03505003452301 1.03505003452301 0.25 2 0.25 L 14 0.25 C 14.96494960784912 0.25 15.75 1.03505003452301 15.75 2 L 15.75 14 C 15.75 14.96494960784912 14.96494960784912 15.75 14 15.75 Z" stroke="none"/>
        <path d="M 2 0.5 C 1.172900199890137 0.5 0.5 1.172900199890137 0.5 2 L 0.5 14 C 0.5 14.82709980010986 1.172900199890137 15.5 2 15.5 L 14 15.5 C 14.82709980010986 15.5 15.5 14.82709980010986 15.5 14 L 15.5 2 C 15.5 1.172900199890137 14.82709980010986 0.5 14 0.5 L 2 0.5 M 2 0 L 14 0 C 15.10457038879395 0 16 0.8954296112060547 16 2 L 16 14 C 16 15.10457038879395 15.10457038879395 16 14 16 L 2 16 C 0.8954296112060547 16 0 15.10457038879395 0 14 L 0 2 C 0 0.8954296112060547 0.8954296112060547 0 2 0 Z" stroke="none" fill="#335017"/>
      </g>
      <rect id="Rectangle_114" data-name="Rectangle 114" width="15.713" height="15.713" rx="2" transform="translate(73 371)" fill="#335017"/>
      <circle id="Ellipse_162" data-name="Ellipse 162" cx="1" cy="1" r="1" transform="translate(80 378)" fill="#fff"/>
      <path id="Path_635" data-name="Path 635" d="M-1114,985.7v3.268" transform="translate(1195.081 -612.164)" fill="none" stroke="#fff" stroke-linecap="round" stroke-width="1.5"/>
      <path id="Path_636" data-name="Path 636" d="M0,0V3.4" transform="translate(85.287 383.362) rotate(135)" fill="none" stroke="#fff" stroke-linecap="round" stroke-width="1.5"/>
    </g>
  </g>
</svg>
