<svg xmlns="http://www.w3.org/2000/svg" width="70" height="70" viewBox="0 0 70 70">
  <g id="Group_663" data-name="Group 663" transform="translate(-111 -359)">
    <g id="Group_137" data-name="Group 137" transform="translate(81 60)">
      <rect id="Rectangle_89" data-name="Rectangle 89" width="70" height="70" rx="10" transform="translate(30 299)" fill="#fff"/>
      <text id="Feedback" transform="translate(38 355)" fill="#3b3858" font-size="12" font-family="Nunito-Bold, Nunito" font-weight="700" letter-spacing="0.03em"><tspan x="0" y="0">Feedback</tspan></text>
    </g>
    <g id="Group_641" data-name="Group 641" transform="translate(119.429 371.143)">
      <g id="Path_903" data-name="Path 903" transform="translate(1 1)" fill="#fff">
        <path d="M 14 15.75 L 2 15.75 C 1.03505003452301 15.75 0.25 14.96494960784912 0.25 14 L 0.25 2 C 0.25 1.03505003452301 1.03505003452301 0.25 2 0.25 L 14 0.25 C 14.96494960784912 0.25 15.75 1.03505003452301 15.75 2 L 15.75 14 C 15.75 14.96494960784912 14.96494960784912 15.75 14 15.75 Z" stroke="none"/>
        <path d="M 2 0.5 C 1.172900199890137 0.5 0.5 1.172900199890137 0.5 2 L 0.5 14 C 0.5 14.82709980010986 1.172900199890137 15.5 2 15.5 L 14 15.5 C 14.82709980010986 15.5 15.5 14.82709980010986 15.5 14 L 15.5 2 C 15.5 1.172900199890137 14.82709980010986 0.5 14 0.5 L 2 0.5 M 2 0 L 14 0 C 15.10457038879395 0 16 0.8954296112060547 16 2 L 16 14 C 16 15.10457038879395 15.10457038879395 16 14 16 L 2 16 C 0.8954296112060547 16 0 15.10457038879395 0 14 L 0 2 C 0 0.8954296112060547 0.8954296112060547 0 2 0 Z" stroke="none" fill="#335017"/>
      </g>
      <rect id="Rectangle_114" data-name="Rectangle 114" width="15.713" height="15.713" rx="2" fill="#335017"/>
      <path id="Icon_awesome-pen" data-name="Icon awesome-pen" d="M2.839.911l1.25,1.25L1.374,4.876.259,5A.234.234,0,0,1,0,4.74L.125,3.625,2.839.911ZM4.862.725,4.275.138a.469.469,0,0,0-.663,0L3.06.69,4.31,1.94l.552-.552a.469.469,0,0,0,0-.663Z" transform="translate(8.357 2.857)" fill="#fff"/>
      <line id="Line_37" data-name="Line 37" x2="8.785" transform="translate(3.071 11.357)" fill="none" stroke="#fff" stroke-linecap="round" stroke-width="1"/>
      <line id="Line_38" data-name="Line 38" x2="8.785" transform="translate(3.071 9.357)" fill="none" stroke="#fff" stroke-linecap="round" stroke-width="1"/>
      <line id="Line_39" data-name="Line 39" x2="3.215" transform="translate(2.856 7.357)" fill="none" stroke="#fff" stroke-linecap="round" stroke-width="1"/>
      <line id="Line_40" data-name="Line 40" x2="3.215" transform="translate(2.856 5.357)" fill="none" stroke="#fff" stroke-linecap="round" stroke-width="1"/>
    </g>
  </g>
</svg>
